<mxfile host="app.diagrams.net" modified="2023-07-26T18:36:11.397Z" agent="Mozilla/5.0 (Windows NT 10.0; Win64; x64) AppleWebKit/537.36 (KHTML, like Gecko) Chrome/114.0.0.0 Safari/537.36 OPR/100.0.0.0" version="21.6.5" etag="zo3iK0g4gDJOnV3NtMhS" type="github">
  <diagram name="Page-1" id="cCNLJI2mDq1Fcl16n4gH">
    <mxGraphModel>
      <root>
        <mxCell id="0" />
        <mxCell id="1" parent="0" />
      </root>
    </mxGraphModel>
  </diagram>
</mxfile>
